<svg width="380" height="80" viewBox="0 0 380 80" fill="none" xmlns="http://www.w3.org/2000/svg" role="img" aria-label="EduLeader Voice">
  <defs>
    
  </defs>
  <g transform="translate(8 8) scale(0.6667)">
    <circle cx="48" cy="48" r="40.2" fill="none" stroke="#f4f1e8" stroke-width="2" opacity="0.6"></circle>
    <circle cx="48" cy="48" r="37.6" fill="none" stroke="#f4f1e8" stroke-width="1.6" opacity="0.32"></circle>
    <g fill="#f4f1e8">
      <rect x="35" y="32" width="6.8" height="34" rx="0.6"></rect>
      <rect x="31.6" y="32" width="13.2" height="2.6"></rect>
      <rect x="31.6" y="63.4" width="13.2" height="2.6"></rect>
      <rect x="31.6" y="32" width="2.4" height="6.6"></rect>
      <rect x="31.6" y="59.4" width="2.4" height="6.6"></rect>
      <rect x="35" y="32" width="19" height="2.6"></rect>
      <rect x="51.6" y="30.4" width="2.4" height="6.4"></rect>
      <rect x="35" y="47.7" width="13.5" height="2.5"></rect>
      <rect x="46.2" y="46.3" width="2.2" height="5.6"></rect>
      <rect x="35" y="63.4" width="21" height="2.6"></rect>
      <rect x="53.6" y="61.6" width="2.4" height="6.4"></rect>
    </g>
    <path transform="translate(62 31) scale(2)" d="M3,-0.4 A3,3 0 1,0 -1.8,2.4 L-2.9,7.6 C0.5,5.2 2.6,2.5 3,-0.4 Z" fill="#c4a062"></path>
  </g>
  <text x="86" y="50" class="wm"><tspan fill="#f4f1e8">EduLeader </tspan><tspan fill="#c4a062">Voice</tspan></text>
</svg>